<svg xmlns="http://www.w3.org/2000/svg" viewBox="0 0 640 480">
  <path fill="#bd3d44" d="M0 0h640v480H0"/>
  <path stroke="#fff" stroke-width="37" d="M0 55.3h640M0 129h640M0 203h640M0 277h640M0 351h640M0 425h640"/>
  <path fill="#192f5d" d="M0 0h364.8v258.5H0"/>
  <marker id="us-a" markerHeight="30" markerWidth="30"><path fill="#fff" d="m14 0 9 27L0 10h28L5 27z"/></marker>
  <path fill="none" marker-mid="url(#us-a)" d="m0 0 16 11h61 61 61 61 61L16 39h61 61 61 61 61 61L16 67h61 61 61 61 61L16 95h61 61 61 61 61 61L16 123h61 61 61 61 61L16 151h61 61 61 61 61 61L16 179h61 61 61 61 61L16 207h61 61 61 61 61 61L16 235h61 61 61 61 61"/>
</svg>
