<svg xmlns="http://www.w3.org/2000/svg" version="1.1" xmlns:xlink="http://www.w3.org/1999/xlink" width="512" height="512" x="0" y="0" viewBox="0 0 512 512" style="enable-background:new 0 0 512 512" xml:space="preserve" class=""><g><path d="M453.605 4.395A14.986 14.986 0 0 0 443 0h-.066c-25.543.117-52.95 6.504-79.266 18.477-27.211 12.375-52.371 30.011-74.773 52.418-22.407 22.402-40.043 47.562-52.418 74.773-10.993 24.16-17.262 49.238-18.305 72.95l92.223-92.223c5.855-5.86 15.355-5.86 21.21 0 5.86 5.855 5.86 15.351 0 21.21l-92.222 92.223c23.71-1.043 48.789-7.312 72.949-18.305 27.211-12.375 52.371-30.011 74.773-52.418 22.407-22.402 40.043-47.562 52.418-74.773 11.973-26.316 18.36-53.723 18.477-79.266.02-4-1.562-7.843-4.395-10.671zM274.934 343H45.066L3.941 387.863A15.001 15.001 0 0 0 0 398v69c0 24.852 20.148 45 45 45h230c24.852 0 45-20.148 45-45v-69c0-3.754-1.406-7.371-3.941-10.137zm0 0" fill="#d1cd52" opacity="1" data-original="#000000" class=""></path><path d="M40 288h15v25h210v-25h15c8.285 0 15-6.719 15-15 0-8.285-6.715-15-15-15h-58.8c.007 0 .019-.004.023-.012l18.101-18.101c.024-.02.004-.055-.023-.051-2.086.09-4.168.156-6.235.164H233c-5.965 0-11.566-3.55-13.969-9.492-.726-1.797-1.043-3.738-1.031-5.68.012-2.027.078-4.074.168-6.129 0-.027-.035-.043-.055-.023l-39.27 39.27a.032.032 0 0 0 .024.054H40c-8.285 0-15 6.715-15 15s6.715 15 15 15zm0 0" fill="#d1cd52" opacity="1" data-original="#000000" class=""></path></g></svg>
